<svg width="140" height="140" viewBox="0 0 140 140" fill="none" xmlns="http://www.w3.org/2000/svg">
<path d="M0 0H140V140H0V0Z" fill="#313131"/>
<path d="M124.072 87.7031V123.999H116.792V100.391L107.068 123.999H101.556L91.78 100.391V123.999H84.5V87.7031H92.768L104.312 114.691L115.856 87.7031H124.072Z" fill="white"/>
<path d="M59.9146 87.7031C63.7279 87.7031 67.0732 88.4485 69.9506 89.9391C72.8626 91.4298 75.0986 93.5618 76.6586 96.3351C78.2532 99.0738 79.0506 102.263 79.0506 105.903C79.0506 109.543 78.2532 112.732 76.6586 115.471C75.0986 118.175 72.8626 120.272 69.9506 121.763C67.0732 123.254 63.7279 123.999 59.9146 123.999H47.2266V87.7031H59.9146ZM59.6546 117.811C63.4679 117.811 66.4146 116.771 68.4946 114.691C70.5746 112.611 71.6146 109.682 71.6146 105.903C71.6146 102.124 70.5746 99.1778 68.4946 97.0631C66.4146 94.9138 63.4679 93.8391 59.6546 93.8391H54.5066V117.811H59.6546Z" fill="white"/>
<path d="M42.0578 98.9351C42.0578 100.876 41.5898 102.696 40.6538 104.395C39.7525 106.094 38.3138 107.463 36.3378 108.503C34.3965 109.543 31.9352 110.063 28.9538 110.063H22.8698V123.999H15.5898V87.7031H28.9538C31.7618 87.7031 34.1538 88.1885 36.1298 89.1591C38.1058 90.1298 39.5792 91.4645 40.5498 93.1631C41.5552 94.8618 42.0578 96.7858 42.0578 98.9351ZM28.6418 104.187C30.6525 104.187 32.1432 103.736 33.1138 102.835C34.0845 101.899 34.5698 100.599 34.5698 98.9351C34.5698 95.3991 32.5938 93.6311 28.6418 93.6311H22.8698V104.187H28.6418Z" fill="white"/>
</svg>
